<svg width="48" height="18" viewBox="0 0 48 18" fill="none" xmlns="http://www.w3.org/2000/svg">
<rect width="48" height="18" fill="#F3F3F3"/>
<g id="&#235;&#158;&#173;&#237;&#130;&#185; &#236;&#131;&#129;&#237;&#146;&#136;&#234;&#182;&#140; + CJ &#234;&#184;&#176;&#237;&#148;&#132;&#237;&#138;&#184;&#236;&#185;&#180;&#235;&#147;&#156; ( IT&#235;&#182;&#128;&#235;&#172;&#184;)">
<path d="M-4681 -1080C-4681 -1081.1 -4680.1 -1082 -4679 -1082H11317C11318.1 -1082 11319 -1081.1 11319 -1080V16999C11319 17000.1 11318.1 17001 11317 17001H-4679C-4680.1 17001 -4681 17000.1 -4681 16999V-1080Z" fill="#222732"/>
<g id="MO_&#236;&#163;&#188;&#235;&#172;&#184;&#234;&#178;&#176;&#236;&#160;&#156; - &#236;&#131;&#129;&#237;&#146;&#136;&#234;&#182;&#140; &#62; &#235;&#158;&#173;&#237;&#130;&#185;&#235;&#139;&#173;&#236;&#187;&#180; &#236;&#131;&#129;&#237;&#146;&#136;&#234;&#182;&#140; &#236;&#132;&#160;&#237;&#131;&#157; &#236;&#139;&#156;" clip-path="url(#clip0_138_26472)">
<rect width="1920" height="2016" transform="translate(-556 -873)" fill="white"/>
<g id="PC_&#236;&#131;&#129;&#237;&#146;&#136;&#234;&#182;&#140; (&#235;&#158;&#173;&#235;&#139;&#173; + CJONE ) ">
<g id="tab list - &#236;&#131;&#129;&#237;&#146;&#136;&#234;&#182;&#140; &#236;&#162;&#133;&#235;&#165;&#152;">
<g id="tab - &#235;&#158;&#173;&#237;&#130;&#185; &#236;&#131;&#129;&#237;&#146;&#136;&#234;&#182;&#140;">
<g id="&#235;&#158;&#173;&#237;&#130;&#185;&#235;&#139;&#173;&#236;&#187;&#180; &#236;&#131;&#129;&#237;&#146;&#136;&#234;&#182;&#140;">
<g id="LOGO-&#235;&#158;&#173;&#237;&#130;&#185;&#235;&#139;&#173;&#236;&#187;&#180;">
<g id="Group 1">
<path id="XMLID_21_" d="M7.80858 6.89846H8.89176V4.48633H10.518V11.5392H8.89303V8.33838H7.80985V11.272H6.18427V10.4859C4.65142 11.4469 1.59811 11.5523 0.5 11.1266V7.24571H3.59269V6.12453H0.5V4.79193H5.20556V8.59241H2.11192V9.92597C2.83913 10.0861 4.88737 9.96537 6.18237 9.07291V4.61895H7.80858V6.89846Z" fill="black"/>
<path id="XMLID_18_" d="M19.2793 4.75253C19.2662 7.93892 17.0192 10.672 13.8995 11.5786C13.5293 11.6859 13.4232 11.6587 13.2514 11.3781L12.7227 10.5513C14.5464 10.031 15.762 9.13762 16.5016 8.17853C15.5651 8.32131 14.6198 8.39709 13.6728 8.40533H12.8271V7.07273H13.9386C15.036 7.0853 16.1326 7.00504 17.2167 6.8328C17.299 6.59945 17.3565 6.35795 17.3882 6.11236H12.8554V4.75253H19.2793ZM22.4837 11.5578H20.7915V4.48633H22.4837V11.5578Z" fill="black"/>
<path id="XMLID_13_" d="M37.5992 6.99296H38.6433C39.6556 7.00189 40.6672 6.93486 41.6697 6.79243C41.7354 6.56898 41.7884 6.34192 41.8284 6.11236H37.6252V4.75285H43.7182C43.7052 7.87261 41.5906 10.4062 38.6691 11.3393C38.2988 11.4597 38.1927 11.4194 38.0209 11.1388L37.4922 10.312C39.1705 9.80488 40.281 9.00564 40.9536 8.13849C40.0993 8.25521 39.2386 8.3178 38.3766 8.32589H37.5973L37.5992 6.99296ZM39.2645 17.7393V11.6984H47.499V17.7393H39.2645ZM40.9428 16.3939H45.8198V13.046H40.9425L40.9428 16.3939ZM43.5337 6.95292H45.8068V4.48633H47.499V11.2877H45.8065V8.39252H43.5334L43.5337 6.95292Z" fill="black"/>
<path id="XMLID_10_" d="M6.98835 12.0273C4.75211 12.0273 3.30469 13.4474 3.30469 15.0212C3.30469 16.5806 4.7537 18.0003 6.98835 18.0003C9.223 18.0003 10.6876 16.5803 10.6876 15.0212C10.6876 13.4474 9.22459 12.0273 6.98835 12.0273ZM6.98835 16.761C6.64843 16.7554 6.31771 16.6487 6.03774 16.4541C5.75777 16.2596 5.54103 15.9859 5.41475 15.6675C5.28846 15.3491 5.25827 15.0001 5.32795 14.6645C5.39763 14.3288 5.56408 14.0214 5.8064 13.7809C6.04871 13.5403 6.35609 13.3774 6.68991 13.3125C7.02374 13.2476 7.36913 13.2837 7.6827 13.4162C7.99628 13.5486 8.26405 13.7716 8.45238 14.0572C8.64072 14.3427 8.74122 14.6779 8.74126 15.0209C8.74387 15.2525 8.7001 15.4823 8.61258 15.6965C8.52505 15.9106 8.39557 16.1048 8.2319 16.2672C8.06822 16.4297 7.87372 16.5572 7.66004 16.642C7.44636 16.7269 7.2179 16.7673 6.98835 16.761Z" fill="black"/>
<path id="XMLID_6_" d="M18.9337 11.9648C16.6974 11.9648 15.25 13.3849 15.25 14.9584C15.25 16.5178 16.699 17.9375 18.9337 17.9375C21.1683 17.9375 22.6329 16.5175 22.6329 14.9584C22.6319 13.3839 21.1686 11.9648 18.9337 11.9648ZM18.9337 16.6985C18.5937 16.6929 18.263 16.5861 17.9831 16.3916C17.7031 16.1971 17.4863 15.9234 17.3601 15.605C17.2338 15.2866 17.2036 14.9376 17.2733 14.602C17.3429 14.2663 17.5094 13.9589 17.7517 13.7184C17.994 13.4778 18.3014 13.3149 18.6352 13.25C18.9691 13.1851 19.3144 13.2212 19.628 13.3536C19.9416 13.4861 20.2094 13.7091 20.3977 13.9947C20.586 14.2802 20.6865 14.6154 20.6866 14.9584C20.6892 15.19 20.6454 15.4198 20.5579 15.634C20.4704 15.8481 20.3409 16.0423 20.1772 16.2047C20.0135 16.3672 19.819 16.4947 19.6054 16.5795C19.3917 16.6644 19.1632 16.7048 18.9337 16.6985Z" fill="black"/>
<path id="XMLID_4_" d="M34.3856 7.27732V4.49039V0.0546875H32.3755L31.2323 1.87901H32.6444V8.62306C31.1075 9.50238 28.4578 9.8083 26.608 9.62155V6.09784H31.1491V4.75243H24.8398V10.8504C26.8925 11.2905 30.7782 11.0105 32.6435 10.0643V10.0742V11.3171H34.3834V8.71596H36.0306V7.27732H34.3856Z" fill="black"/>
</g>
<path id="XMLID_3_" d="M17.3765 2.2446L16.0158 0L14.6563 2.2446L12.8867 0.843126L13.8148 4.00773H18.2187L19.1468 0.843126L17.3765 2.2446Z" fill="#DE0826"/>
<path id="XMLID_2_" d="M29.9076 15.5187H27.0846V16.2612H30.2882V17.7438H25.5078V14.081H28.3308V13.3692H25.5078V11.8867H29.9076V15.5187Z" fill="black"/>
<path id="XMLID_1_" d="M30.3008 11.8867H34.3608V17.7438H32.7171V13.4448H30.3008V11.8867Z" fill="black"/>
</g>
</g>
<rect x="-145" y="-20" width="374" height="58" rx="5" stroke="#FF6001" stroke-width="2"/>
</g>
</g>
<path d="M-146 -89H614V-91H-146V-89ZM614 170H-146V172H614V170Z" fill="#333333" mask="url(#path-3-outside-1_138_26472)"/>
</g>
</g>
<path d="M-4679 -1081H11317V-1083H-4679V-1081ZM11318 -1080V16999H11320V-1080H11318ZM11317 17000H-4679V17002H11317V17000ZM-4680 16999V-1080H-4682V16999H-4680ZM-4679 17000C-4679.55 17000 -4680 16999.6 -4680 16999H-4682C-4682 17000.7 -4680.66 17002 -4679 17002V17000ZM11318 16999C11318 16999.6 11317.6 17000 11317 17000V17002C11318.7 17002 11320 17000.7 11320 16999H11318ZM11317 -1081C11317.6 -1081 11318 -1080.55 11318 -1080H11320C11320 -1081.66 11318.7 -1083 11317 -1083V-1081ZM-4679 -1083C-4680.66 -1083 -4682 -1081.66 -4682 -1080H-4680C-4680 -1080.55 -4679.55 -1081 -4679 -1081V-1083Z" fill="white" fill-opacity="0.1"/>
</g>
<defs>
<clipPath id="clip0_138_26472">
<rect width="1920" height="2016" fill="white" transform="translate(-556 -873)"/>
</clipPath>
</defs>
</svg>
